<svg width="15.967285" height="15.967346" viewBox="0 0 15.9673 15.9673" fill="none" xmlns="http://www.w3.org/2000/svg" xmlns:xlink="http://www.w3.org/1999/xlink">
	<desc>
			Created with Pixso.
	</desc>
	<defs/>
	<path id="Vector" d="M7.95093 1.45164C9.24292 1.45164 10.5059 1.83475 11.5801 2.55251C12.6543 3.27025 13.4915 4.29044 13.9858 5.48401C14.4802 6.6776 14.6096 7.99098 14.3577 9.25809C14.1055 10.5252 13.4834 11.6891 12.5698 12.6026C11.6562 13.5162 10.4924 14.1383 9.22534 14.3903C7.95825 14.6424 6.64478 14.513 5.45117 14.0186C4.25781 13.5242 3.23755 12.687 2.51978 11.6128C1.802 10.5386 1.41895 9.27567 1.41895 7.98373C1.42554 6.25337 2.11597 4.59579 3.3396 3.37224C4.56299 2.14868 6.2207 1.45833 7.95093 1.45164ZM7.95093 6.10352e-05C6.37329 0.0065155 4.83301 0.48024 3.52441 1.3614C2.21582 2.24258 1.19775 3.4917 0.598389 4.95108C-0.000976562 6.41046 -0.154297 8.01468 0.157471 9.5612C0.469238 11.1077 1.23218 12.5272 2.34985 13.6405C3.46777 14.7538 4.89038 15.5109 6.43799 15.8163C7.98584 16.1217 9.58936 15.9617 11.0464 15.3565C12.5034 14.7513 13.7483 13.728 14.624 12.4158C15.5 11.1036 15.9673 9.56137 15.9673 7.98373C15.9673 6.93256 15.7598 5.89171 15.3564 4.92096C14.9534 3.9502 14.3623 3.06863 13.6174 2.32684C12.8726 1.58507 11.9888 0.997681 11.0164 0.598389C10.0439 0.199097 9.0022 -0.00422668 7.95093 6.10352e-05Z" fill="#F2F2F2" fill-opacity="1.000000" fill-rule="nonzero"/>
	<path id="Vector" d="M11.6743 7.38132L8.46265 7.38132L8.46265 4.16971L7.38135 4.16971L7.38135 7.38132L4.16602 7.38132L4.16602 8.46274L7.38135 8.46274L7.38135 11.6744L8.46265 11.6744L8.46265 8.46274L11.6743 8.46274L11.6743 7.38132Z" fill="#F2F2F2" fill-opacity="1.000000" fill-rule="nonzero"/>
</svg>
