<svg width="12.478027" height="14.000000" viewBox="0 0 12.478 14" fill="none" xmlns="http://www.w3.org/2000/svg" xmlns:xlink="http://www.w3.org/1999/xlink">
	<desc>
			Created with Pixso.
	</desc>
	<defs/>
	<path id="Vector" d="M6.87158 4.98547L8.20215 4.98547L8.20215 10.5073L6.87158 10.5073L6.87158 4.98547Z" fill="#808080" fill-opacity="1.000000" fill-rule="evenodd"/>
	<path id="Vector" d="M4.13184 4.98547L5.4624 4.98547L5.4624 10.5073L4.13184 10.5073L4.13184 4.98547Z" fill="#808080" fill-opacity="1.000000" fill-rule="evenodd"/>
	<path id="Vector" d="M12.478 2.16712C12.4753 2.03061 12.4294 1.89846 12.3469 1.78975C12.2642 1.68104 12.1492 1.6014 12.0183 1.56232C11.9595 1.53782 11.8975 1.52252 11.834 1.51696L8.28687 1.51696C8.15259 1.07791 7.88086 0.693554 7.51172 0.420471C7.14258 0.147388 6.69556 0 6.23657 0C5.77734 0 5.33032 0.147388 4.96118 0.420471C4.59229 0.693554 4.32056 1.07791 4.18628 1.51696L0.63916 1.51696C0.580566 1.51814 0.522705 1.52729 0.466797 1.54418L0.45166 1.54418C0.313232 1.58701 0.193359 1.67547 0.111572 1.79515C0.0300293 1.91483 -0.00878906 2.05866 0.00170898 2.20319C0.012207 2.34771 0.0712891 2.48441 0.169678 2.59099C0.267822 2.69757 0.39917 2.76774 0.542236 2.79006L1.25293 12.5334C1.26392 12.9127 1.41699 13.2741 1.68188 13.5458C1.94678 13.8175 2.30444 13.9797 2.68335 14L9.78662 14C10.1663 13.9804 10.5244 13.8186 10.79 13.5468C11.0557 13.2751 11.2092 12.9132 11.22 12.5334L11.9277 2.79914C12.0803 2.77797 12.22 2.70232 12.321 2.58615C12.4224 2.46999 12.478 2.32116 12.478 2.16712ZM6.23657 1.21456C6.36621 1.21458 6.49438 1.24146 6.61304 1.29351C6.73169 1.34556 6.83813 1.42164 6.92603 1.51696L5.54712 1.51696C5.63452 1.42135 5.74121 1.34507 5.85986 1.29299C5.97852 1.24092 6.10693 1.21421 6.23657 1.21456ZM9.78662 12.7904L2.68335 12.7904C2.60156 12.7904 2.47461 12.6573 2.45947 12.4457L1.75806 2.81123L10.7151 2.81123L10.0134 12.4457C9.99829 12.6573 9.87134 12.7904 9.78662 12.7904Z" fill="#808080" fill-opacity="1.000000" fill-rule="nonzero"/>
</svg>
