<svg width="183.000000" height="48.000000" viewBox="0 0 183 48" fill="none" xmlns="http://www.w3.org/2000/svg" xmlns:xlink="http://www.w3.org/1999/xlink">
	<desc>
			Created with Pixso.
	</desc>
	<defs>
		<clipPath id="clip43_111">
			<rect id="rocket" width="22.000000" height="36.000000" transform="translate(0.000000 10.000000)" fill="white" fill-opacity="0"/>
		</clipPath>
	</defs>
	<path id="novado" d="M147.41 35.416C146.502 37.6328 144.402 39.2832 141.326 39.2832C136.668 39.2832 132.752 35.6504 132.752 28.0918C132.752 20.1914 136.951 16.9004 141.277 16.9004C144.51 16.9004 146.56 18.7754 147.41 20.9922L147.527 20.9922L147.527 9.9082L155.359 9.9082L155.359 39L147.576 39L147.576 35.416L147.41 35.416ZM181.047 28.1504C181.047 34.8496 176.838 39.4004 169.739 39.4004C162.639 39.4004 158.43 34.8496 158.43 28.1504C158.43 21.4414 162.639 16.9004 169.739 16.9004C176.838 16.9004 181.047 21.4414 181.047 28.1504ZM166.448 28.0918C166.448 31.5098 167.698 33.5996 169.797 33.5996C171.78 33.5996 173.03 31.5098 173.03 28.0918C173.03 24.6641 171.78 22.584 169.797 22.584C167.698 22.584 166.448 24.6641 166.448 28.0918ZM140.818 28.0918C140.818 31.334 142.068 33.2578 144.226 33.2578C146.385 33.2578 147.693 31.2754 147.693 28.0918C147.693 24.8496 146.385 22.916 144.226 22.916C142.068 22.916 140.818 24.8496 140.818 28.0918Z" fill="#5E60CE" fill-opacity="1.000000" fill-rule="evenodd"/>
	<path id="novado" d="M47.0078 23.2578C45.0645 23.2578 43.8438 24.5664 43.834 26.7246L43.834 39L35.9922 39L35.9922 17.1836L43.4336 17.1836L43.4336 21.334L43.6582 21.334C44.6152 18.5703 47.1543 16.9004 50.3672 16.9004C54.9961 16.9004 57.9941 20.3379 57.9746 25.084L57.9746 39L50.1328 39L50.1328 26.7246C50.1523 24.5664 48.9902 23.2578 47.0078 23.2578ZM83.6609 28.1504C83.6609 34.8496 79.4519 39.4004 72.3523 39.4004C65.2527 39.4004 61.0437 34.8496 61.0437 28.1504C61.0437 21.4414 65.2527 16.9004 72.3523 16.9004C79.4519 16.9004 83.6609 21.4414 83.6609 28.1504ZM122.182 35.9336C120.863 38.375 118.715 39.3418 115.873 39.3418C111.703 39.3418 108.774 37.3203 108.774 32.9746C108.774 28.1895 112.279 26.373 116.781 26.041C120.453 25.7773 121.84 25.377 121.84 24.1172L121.84 24.0586C121.84 22.916 120.873 22.291 119.516 22.291C118.022 22.291 117.026 22.9355 116.84 24.2832L109.623 24.2832C109.897 20.3086 113.11 16.9004 119.623 16.9004C125.863 16.9004 129.682 20.0254 129.682 24.0586L129.682 39L122.348 39L122.348 35.9336L122.182 35.9336ZM99.9126 17.1836L108.145 17.1836L100.821 39L91.729 39L84.3951 17.1836L92.6373 17.1836L96.1626 31.6172L96.3873 31.6172L99.9126 17.1836ZM69.0613 28.0918C69.0613 31.5098 70.3113 33.5996 72.4109 33.5996C74.3933 33.5996 75.6433 31.5098 75.6433 28.0918C75.6433 24.6641 74.3933 22.584 72.4109 22.584C70.3113 22.584 69.0613 24.6641 69.0613 28.0918ZM116.156 32.5254C116.156 33.7461 117.094 34.4004 118.432 34.4004C120.209 34.4004 121.899 33.2578 121.899 31.2754L121.899 29.459C121.078 29.791 120.024 30.0547 118.774 30.25C116.957 30.5332 116.156 31.4023 116.156 32.5254Z" fill="#4EA8DE" fill-opacity="1.000000" fill-rule="evenodd"/>
	<rect id="rocket" width="22.000000" height="36.000000" transform="translate(0.000000 10.000000)" fill="#FFFFFF" fill-opacity="0"/>
	<g clip-path="url(#clip43_111)">
		<path id="Vector" d="M11.0214 12.933C14.1471 16.9011 15.8157 21.7944 15.7551 26.8155L15.7551 28.0141L16.7864 28.6416C18.1188 29.4482 19.1125 30.6993 19.5865 32.1669C19.1704 31.8605 18.7351 31.5803 18.2831 31.3279L15.5331 29.7838L15.0389 32.9001C14.9962 33.1755 14.9388 33.4485 14.8671 33.718L7.16138 33.718C7.04675 33.3654 6.95374 33.0129 6.8678 32.6463L6.24475 29.8261L3.70959 31.2362C3.28601 31.473 2.87708 31.7344 2.48499 32.0188C2.96814 30.5682 3.94116 29.3242 5.24207 28.4935L6.22327 27.866L6.22327 26.752C6.24097 21.7513 7.92957 16.8952 11.0286 12.933L11.0214 12.933ZM11.0286 10C10.8678 10.0004 10.7126 10.058 10.5917 10.1622L10.5272 10.2186C6.39771 14.7656 4.10449 20.6454 4.08191 26.745C2.32959 27.8643 1.03235 29.5544 0.417114 31.5197C-0.19812 33.485 -0.0922852 35.6007 0.716064 37.4971C1.56763 35.6455 2.99121 34.1058 4.78381 33.0975C4.9635 33.8642 5.203 34.6161 5.49988 35.3466C5.5376 35.4871 5.62109 35.6115 5.73755 35.7006C5.854 35.7898 5.99695 35.8388 6.14441 35.8402L16.0846 35.8402C16.285 35.8402 16.4856 35.6498 16.5858 35.3537C16.8757 34.6592 17.0778 33.9322 17.1874 33.1892C18.9834 34.1932 20.4082 35.7342 21.2551 37.5887C22.1123 35.7017 22.245 33.5727 21.6287 31.5966C21.0123 29.6206 19.6887 27.9319 17.9036 26.8437C17.9744 20.7082 15.6934 14.7718 11.5155 10.2186C11.4534 10.1501 11.3772 10.0952 11.2921 10.0576C11.2069 10.0199 11.1147 10.0003 11.0214 10L11.0286 10Z" fill="#4EA8DE" fill-opacity="1.000000" fill-rule="nonzero"/>
		<path id="Vector" d="M11.0216 26.1598C10.4716 26.1598 9.93372 25.9995 9.47607 25.699C9.01843 25.3986 8.66138 24.9715 8.44995 24.4716C8.23853 23.9716 8.18201 23.4213 8.28784 22.8898C8.39355 22.3584 8.65674 21.8697 9.04419 21.4853C9.43164 21.1009 9.92603 20.838 10.4651 20.7298C11.004 20.6216 11.5635 20.6729 12.0729 20.8773C12.5823 21.0816 13.0188 21.4298 13.3275 21.8781C13.6361 22.3263 13.8031 22.8545 13.8074 23.396C13.8159 23.7469 13.7542 24.0961 13.6256 24.4235C13.4971 24.751 13.3043 25.0503 13.0582 25.3043C12.8121 25.5583 12.5176 25.7622 12.1915 25.9041C11.8655 26.0461 11.514 26.1234 11.1576 26.1316C11.1125 26.1387 11.0667 26.1387 11.0216 26.1316L11.0216 26.1598Z" fill="#4EA8DE" fill-opacity="1.000000" fill-rule="nonzero"/>
		<path id="Path 3417" d="M14.8959 37.5958C14.7167 37.5901 14.5382 37.6198 14.3708 37.683C14.2034 37.7462 14.0505 37.8416 13.9211 37.9638C13.7917 38.086 13.6884 38.2323 13.6172 38.3943C13.546 38.5563 13.5084 38.7307 13.5066 38.9072L13.5066 43.067C13.5066 43.4297 13.653 43.7776 13.9136 44.0342C14.1741 44.2907 14.5275 44.4348 14.8959 44.4348C15.2644 44.4348 15.6178 44.2907 15.8783 44.0342C16.1389 43.7776 16.2853 43.4297 16.2853 43.067L16.2853 38.9636C16.291 38.7878 16.2611 38.6125 16.1974 38.4482C16.1335 38.2839 16.0372 38.1337 15.9139 38.0064C15.7906 37.8791 15.6428 37.7772 15.4791 37.7067C15.3153 37.6362 15.139 37.5985 14.9603 37.5958L14.8959 37.5958Z" fill="#5E60CE" fill-opacity="1.000000" fill-rule="nonzero"/>
		<path id="Path 3418" d="M7.1615 37.5958C6.97925 37.5863 6.797 37.613 6.62549 37.6743C6.45386 37.7356 6.29663 37.8302 6.16296 37.9525C6.02942 38.0749 5.92212 38.2225 5.84766 38.3865C5.77307 38.5505 5.73279 38.7275 5.72925 38.9072L5.72925 43.067C5.72925 43.4297 5.87561 43.7776 6.13623 44.0342C6.39673 44.2907 6.75012 44.4348 7.11853 44.4348C7.48706 44.4348 7.84045 44.2907 8.10095 44.0342C8.36157 43.7776 8.50793 43.4297 8.50793 43.067L8.50793 38.9636C8.51367 38.7878 8.48376 38.6126 8.42004 38.4482C8.3562 38.2839 8.25989 38.1337 8.1366 38.0064C8.01331 37.8791 7.86548 37.7772 7.70178 37.7067C7.53796 37.6362 7.36169 37.5985 7.18298 37.5958L7.1615 37.5958Z" fill="#5E60CE" fill-opacity="1.000000" fill-rule="nonzero"/>
		<path id="Path 3419" d="M10.9213 37.5958C10.7426 37.592 10.5649 37.623 10.3983 37.6869C10.2318 37.7507 10.0797 37.8463 9.95068 37.9681C9.82166 38.0899 9.71826 38.2355 9.64648 38.3966C9.57458 38.5577 9.53564 38.7312 9.53198 38.9072L9.53198 44.6392C9.53198 45.002 9.67834 45.3499 9.93896 45.6064C10.1995 45.8629 10.5529 46.007 10.9213 46.007C11.2898 46.007 11.6432 45.8629 11.9037 45.6064C12.1643 45.3499 12.3107 45.002 12.3107 44.6392L12.3107 38.9988C12.3164 38.823 12.2865 38.6478 12.2228 38.4835C12.1589 38.3191 12.0626 38.1689 11.9393 38.0416C11.816 37.9143 11.6682 37.8124 11.5045 37.7419C11.3407 37.6714 11.1644 37.6337 10.9857 37.631L10.9213 37.5958Z" fill="#5E60CE" fill-opacity="1.000000" fill-rule="nonzero"/>
	</g>
</svg>
