<svg width="22.000000" height="37.000000" viewBox="0 0 22 37" fill="none" xmlns="http://www.w3.org/2000/svg" xmlns:xlink="http://www.w3.org/1999/xlink">
	<desc>
			Created with Pixso.
	</desc>
	<defs/>
	<path id="Vector" d="M10.02 2.93C13.14 6.9 14.81 11.79 14.75 16.81L14.75 18.01L15.78 18.64C17.11 19.44 18.11 20.69 18.58 22.16C18.17 21.86 17.73 21.58 17.28 21.32L14.53 19.78L14.03 22.9C13.99 23.17 13.93 23.44 13.86 23.71L6.16 23.71C6.04 23.36 5.95 23.01 5.86 22.64L5.24 19.82L2.7 21.23C2.28 21.47 1.87 21.73 1.48 22.01C1.96 20.56 2.94 19.32 4.24 18.49L5.22 17.86L5.22 16.75C5.24 11.75 6.92 6.89 10.02 2.93L10.02 2.93ZM10.02 0C9.86 0 9.71 0.05 9.59 0.16L9.52 0.21C5.39 4.76 3.1 10.64 3.08 16.74C1.32 17.86 0.03 19.55 -0.59 21.51C-1.2 23.48 -1.1 25.6 -0.29 27.49C0.56 25.64 1.99 24.1 3.78 23.09C3.96 23.86 4.2 24.61 4.49 25.34C4.53 25.48 4.62 25.61 4.73 25.7C4.85 25.78 4.99 25.83 5.14 25.84L15.08 25.84C15.28 25.84 15.48 25.64 15.58 25.35C15.87 24.65 16.07 23.93 16.18 23.18C17.98 24.19 19.4 25.73 20.25 27.58C21.11 25.7 21.24 23.57 20.62 21.59C20.01 19.62 18.68 17.93 16.9 16.84C16.97 10.7 14.69 4.77 10.51 0.21C10.45 0.15 10.37 0.09 10.29 0.05C10.2 0.01 10.11 0 10.02 0L10.02 0Z" fill="#4EA8DE" fill-opacity="1.000000" fill-rule="nonzero"/>
	<path id="Vector" d="M10.02 16.15C9.47 16.15 8.93 15.99 8.47 15.69C8.01 15.39 7.66 14.97 7.44 14.47C7.23 13.97 7.18 13.42 7.28 12.88C7.39 12.35 7.65 11.86 8.04 11.48C8.43 11.1 8.92 10.83 9.46 10.72C10 10.62 10.56 10.67 11.07 10.87C11.58 11.08 12.01 11.42 12.32 11.87C12.63 12.32 12.8 12.85 12.8 13.39C12.81 13.74 12.75 14.09 12.62 14.42C12.49 14.75 12.3 15.05 12.05 15.3C11.81 15.55 11.51 15.76 11.19 15.9C10.86 16.04 10.51 16.12 10.15 16.13C10.11 16.13 10.06 16.13 10.02 16.13L10.02 16.15Z" fill="#4EA8DE" fill-opacity="1.000000" fill-rule="nonzero"/>
	<path id="Path 3417" d="M13.89 27.59C13.71 27.59 13.53 27.61 13.37 27.68C13.2 27.74 13.05 27.84 12.92 27.96C12.79 28.08 12.68 28.23 12.61 28.39C12.54 28.55 12.5 28.73 12.5 28.9L12.5 33.06C12.5 33.42 12.65 33.77 12.91 34.03C13.17 34.29 13.52 34.43 13.89 34.43C14.26 34.43 14.61 34.29 14.87 34.03C15.13 33.77 15.28 33.42 15.28 33.06L15.28 28.96C15.29 28.78 15.26 28.61 15.19 28.44C15.13 28.28 15.03 28.13 14.91 28C14.79 27.87 14.64 27.77 14.47 27.7C14.31 27.63 14.13 27.59 13.96 27.59L13.89 27.59Z" fill="#5E60CE" fill-opacity="1.000000" fill-rule="nonzero"/>
	<path id="Path 3418" d="M6.16 27.59C5.97 27.58 5.79 27.61 5.62 27.67C5.45 27.73 5.29 27.83 5.16 27.95C5.02 28.07 4.92 28.22 4.84 28.38C4.77 28.55 4.73 28.72 4.72 28.9L4.72 33.06C4.72 33.42 4.87 33.77 5.13 34.03C5.39 34.29 5.75 34.43 6.11 34.43C6.48 34.43 6.84 34.29 7.1 34.03C7.36 33.77 7.5 33.42 7.5 33.06L7.5 28.96C7.51 28.78 7.48 28.61 7.42 28.44C7.35 28.28 7.25 28.13 7.13 28C7.01 27.87 6.86 27.77 6.7 27.7C6.53 27.63 6.36 27.59 6.18 27.59L6.16 27.59Z" fill="#5E60CE" fill-opacity="1.000000" fill-rule="nonzero"/>
	<path id="Path 3419" d="M9.92 27.59C9.74 27.59 9.56 27.62 9.39 27.68C9.23 27.75 9.07 27.84 8.95 27.96C8.82 28.08 8.71 28.23 8.64 28.39C8.57 28.55 8.53 28.73 8.53 28.9L8.53 34.63C8.53 35 8.67 35.34 8.93 35.6C9.19 35.86 9.55 36 9.92 36C10.28 36 10.64 35.86 10.9 35.6C11.16 35.34 11.31 35 11.31 34.63L11.31 28.99C11.31 28.82 11.28 28.64 11.22 28.48C11.15 28.31 11.06 28.16 10.93 28.04C10.81 27.91 10.66 27.81 10.5 27.74C10.34 27.67 10.16 27.63 9.98 27.63L9.92 27.59Z" fill="#5E60CE" fill-opacity="1.000000" fill-rule="nonzero"/>
</svg>
